<svg width="56" height="56" viewBox="0 0 56 56" fill="none" xmlns="http://www.w3.org/2000/svg">
<path d="M28 56C43.464 56 56 43.464 56 28C56 12.536 43.464 0 28 0C12.536 0 0 12.536 0 28C0 43.464 12.536 56 28 56Z" fill="#4ACFFF"/>
<g clip-path="url(#clip0_600_4181)">
<path d="M22.316 30.934C22.316 30.2728 22.5448 29.7134 23.0023 29.2556C23.4599 28.7979 24.0191 28.569 24.68 28.569C25.3408 28.569 25.9 28.7979 26.3576 29.2556C26.8151 29.7134 27.0439 30.2728 27.0439 30.934C27.0439 31.5952 26.8151 32.1546 26.3576 32.6124C25.9 33.0701 25.3408 33.299 24.68 33.299C24.0191 33.299 23.4599 33.0701 23.0023 32.6124C22.5448 32.1546 22.316 31.5952 22.316 30.934ZM14.2711 34.367C13.8898 34.8247 13.4196 35.0536 12.8604 35.0536C12.352 35.0536 11.9199 34.8756 11.5641 34.5196C11.2082 34.1636 11.0303 33.7313 11.0303 33.2227C11.0303 32.7649 11.1574 32.3962 11.4115 32.1165L20.6766 19.6432C21.1087 19.0583 21.6806 18.5879 22.3923 18.2318C23.104 17.8504 23.8666 17.6597 24.68 17.6597C25.4425 17.6597 26.1669 17.825 26.8532 18.1555C27.5395 18.4861 28.0987 18.9439 28.5309 19.5288L37.7959 31.9257C37.9484 32.1038 38.0755 32.3072 38.1771 32.5361C38.2788 32.7395 38.3297 32.9684 38.3297 33.2227C38.3297 33.7313 38.1517 34.1636 37.7959 34.5196C37.44 34.8756 37.0079 35.0536 36.4995 35.0536C35.8895 35.0536 35.4065 34.812 35.0507 34.3289L26.1669 22.4659C25.989 22.2625 25.7602 22.0463 25.4806 21.8174C25.2265 21.5631 24.9596 21.436 24.68 21.436C24.4004 21.436 24.1208 21.5631 23.8412 21.8174C23.587 22.0463 23.3836 22.2625 23.2311 22.4659L14.2711 34.367Z" fill="#042948"/>
<path d="M45.8182 33.2227C45.8182 33.7313 45.6402 34.1636 45.2844 34.5196C44.9285 34.8756 44.4964 35.0536 43.988 35.0536C43.4797 35.0536 43.0475 34.8756 42.6917 34.5196C42.3358 34.1636 42.1579 33.7313 42.1579 33.2227V20.2535C42.1579 19.7449 42.3358 19.3126 42.6917 18.9566C43.0475 18.6006 43.4797 18.4226 43.988 18.4226C44.4964 18.4226 44.9285 18.6006 45.2844 18.9566C45.6402 19.3126 45.8182 19.7449 45.8182 20.2535V33.2227Z" fill="#042948"/>
</g>
<defs>
<clipPath id="clip0_600_4181">
<rect width="34.7879" height="34.7879" fill="white" transform="translate(11.0303 6.78809)"/>
</clipPath>
</defs>
</svg>
