<svg width="42" height="22" viewBox="0 0 42 22" fill="none" xmlns="http://www.w3.org/2000/svg">
<path d="M13.6255 16.5263C13.6255 15.7281 13.9017 15.0526 14.4541 14.5C15.0065 13.9474 15.6816 13.6711 16.4795 13.6711C17.2774 13.6711 17.9525 13.9474 18.5049 14.5C19.0573 15.0526 19.3335 15.7281 19.3335 16.5263C19.3335 17.3246 19.0573 18 18.5049 18.5526C17.9525 19.1053 17.2774 19.3816 16.4795 19.3816C15.6816 19.3816 15.0065 19.1053 14.4541 18.5526C13.9017 18 13.6255 17.3246 13.6255 16.5263ZM3.91273 20.6711C3.45241 21.2237 2.88468 21.5 2.20954 21.5C1.59578 21.5 1.07408 21.2851 0.64445 20.8553C0.214817 20.4254 0 19.9035 0 19.2895C0 18.7368 0.15344 18.2917 0.460321 17.9539L11.6461 2.89474C12.1678 2.1886 12.8583 1.62062 13.7176 1.19079C14.5768 0.730264 15.4975 0.5 16.4795 0.5C17.4001 0.5 18.2748 0.699562 19.1033 1.09868C19.9319 1.49781 20.607 2.05044 21.1287 2.75658L32.3146 17.7237C32.4987 17.9386 32.6521 18.1842 32.7749 18.4605C32.8976 18.7061 32.959 18.9825 32.959 19.2895C32.959 19.9035 32.7442 20.4254 32.3146 20.8553C31.8849 21.2851 31.3632 21.5 30.7495 21.5C30.0129 21.5 29.4299 21.2083 29.0002 20.625L18.2748 6.30263C18.0599 6.05702 17.7837 5.79605 17.4462 5.51974C17.1393 5.21272 16.8171 5.05921 16.4795 5.05921C16.1419 5.05921 15.8044 5.21272 15.4668 5.51974C15.1599 5.79605 14.9144 6.05702 14.7303 6.30263L3.91273 20.6711Z" fill="#4ACFFF"/>
<path d="M42 19.2895C42 19.9035 41.7852 20.4254 41.3555 20.8553C40.9259 21.2851 40.4042 21.5 39.7905 21.5C39.1767 21.5 38.655 21.2851 38.2254 20.8553C37.7957 20.4254 37.5809 19.9035 37.5809 19.2895V3.63158C37.5809 3.01754 37.7957 2.49561 38.2254 2.06579C38.655 1.63597 39.1767 1.42105 39.7905 1.42105C40.4042 1.42105 40.9259 1.63597 41.3555 2.06579C41.7852 2.49561 42 3.01754 42 3.63158V19.2895Z" fill="#4ACFFF"/>
</svg>
