<svg width="13" height="12" viewBox="0 0 13 12" fill="none" xmlns="http://www.w3.org/2000/svg">
<path d="M9.68899 1H5.14109C4.18944 1 3.41504 1.7744 3.41504 2.72605V3H3.14109C2.18944 3 1.41504 3.7744 1.41504 4.72605V9.2739C1.41504 10.2256 2.18944 11 3.14109 11H7.68894C8.56319 11 9.28004 10.3441 9.39214 9.5H9.68894C10.6406 9.5 11.415 8.7256 11.415 7.77395V2.72605C11.415 1.7744 10.6406 1 9.68899 1ZM10.415 7.77395C10.415 8.1743 10.0893 8.5 9.68899 8.5H9.41504V4.72605C9.41504 3.7744 8.64064 3 7.68899 3H4.41504V2.72605C4.41504 2.3257 4.74074 2 5.14109 2H9.68894C10.0893 2 10.415 2.3257 10.415 2.72605V7.77395Z" fill="#EBEBEB"/>
</svg>
