<svg width="16" height="19" viewBox="0 0 16 19" fill="none" xmlns="http://www.w3.org/2000/svg">
<path d="M1.44506 7.00003C1.45449 6.96305 1.4676 6.92669 1.48454 6.89152C2.57187 3.93328 4.91242 0.389893 8 0.389893C12.2186 0.389893 15.3538 7.14719 15.3538 11.0361C15.3538 15.091 12.0549 18.3899 8 18.3899C3.94514 18.3899 0.646236 15.091 0.646236 11.0361C0.646236 9.83917 0.939244 8.4074 1.44506 7.00003ZM13.6922 8.07469L12.3615 9.08948C12.1533 9.24829 11.8646 9.24803 11.6565 9.08886L9.99499 7.81747L8.30803 9.09119C8.099 9.24898 7.81027 9.24731 7.60306 9.08719L5.96397 7.82019L4.29947 9.08952C4.09131 9.24832 3.80255 9.24807 3.5945 9.0889L2.30057 8.09876C2.02966 8.9923 1.86062 9.87157 1.81834 10.657C1.97925 10.6239 2.15116 10.6593 2.28823 10.7641L3.94797 12.0342L5.61427 10.7635C5.82338 10.6041 6.11352 10.605 6.32146 10.7658L7.96229 12.0342L9.64751 10.7618C9.85563 10.6046 10.1431 10.6055 10.3502 10.7641L12.01 12.0342L13.6763 10.7634C13.8237 10.651 14.0113 10.6187 14.1822 10.6656C14.1403 9.87103 13.9684 8.97981 13.6922 8.07469ZM8 1.55118C6.5457 1.55118 4.98166 2.7713 3.70896 4.89867C3.32453 5.5413 2.98569 6.23699 2.70426 6.94538L3.94797 7.89713L5.61427 6.62642C5.82338 6.46696 6.11352 6.4679 6.32146 6.62871L7.96229 7.89705L9.64751 6.62468C9.85563 6.46754 10.1431 6.46841 10.3502 6.62696L12.01 7.89705L13.2869 6.92328C12.2895 4.42436 10.3016 1.55118 8 1.55118ZM8 17.2286C11.0781 17.2286 13.6385 14.971 14.1132 12.0247L14.026 11.9573L12.3615 13.2266C12.1533 13.3854 11.8646 13.3851 11.6565 13.226L9.99499 11.9546L8.30803 13.2283C8.099 13.3861 7.81027 13.3844 7.60306 13.2243L5.96397 11.9573L4.29947 13.2267C4.09131 13.3854 3.80255 13.3852 3.5945 13.226L1.93712 11.9578L1.88268 11.9999C2.34695 14.9583 4.91322 17.2286 8 17.2286ZM10.463 15.3302C11.0258 15.439 11.3918 14.7552 10.9871 14.3504C10.6778 14.0328 10.1084 14.1749 10.0072 14.6473C9.94882 14.9489 10.1298 15.2587 10.463 15.3302ZM7.77754 15.3302C8.10622 15.3937 8.40104 15.1758 8.46052 14.8744C8.51931 14.5671 8.33405 14.2626 8.00468 14.1914C7.69657 14.1323 7.39184 14.3198 7.32173 14.6473C7.26334 14.9489 7.44428 15.2587 7.77754 15.3302ZM8.00472 4.03017C7.656 3.96333 7.3451 4.21188 7.31338 4.54259C7.28272 4.86326 7.51708 5.14697 7.83419 5.17731C8.13442 5.20609 8.40344 5.00254 8.46056 4.71316C8.52367 4.38321 8.30556 4.0894 8.00472 4.03017ZM5.8273 4.03017C5.48062 3.96369 5.16794 4.20923 5.13597 4.54259C5.1053 4.86326 5.33966 5.14697 5.65677 5.17731C5.95783 5.20616 6.22627 5.00127 6.28314 4.71316C6.34599 4.38466 6.13025 4.08984 5.8273 4.03017ZM10.1821 4.03017C9.83284 3.96322 9.52245 4.21246 9.4908 4.54259C9.45956 4.86924 9.70093 5.14759 10.0116 5.17731C10.291 5.20409 10.5697 5.02849 10.638 4.71316C10.7009 4.38437 10.4841 4.08962 10.1821 4.03017ZM5.09205 15.3302C5.39664 15.3891 5.70333 15.2058 5.77504 14.8744C5.83379 14.5675 5.64882 14.2626 5.3192 14.1914C5.01588 14.1333 4.70738 14.3151 4.63625 14.6473C4.57786 14.9489 4.7588 15.2587 5.09205 15.3302Z" fill="white"/>
</svg>
