<svg width="17" height="17" viewBox="0 0 17 17" fill="none" xmlns="http://www.w3.org/2000/svg">
<g clip-path="url(#clip0_2207_125293)">
<path d="M14.1812 6.61567C14.1728 6.5828 14.1611 6.55047 14.1461 6.51922C13.1795 3.88967 11.0991 0.73999 8.35455 0.73999C4.60471 0.73999 1.81787 6.74647 1.81787 10.2033C1.81787 13.8077 4.75023 16.74 8.35455 16.74C11.9589 16.74 14.8912 13.8077 14.8912 10.2033C14.8912 9.13934 14.6308 7.86667 14.1812 6.61567ZM3.29481 7.57093L4.47768 8.47296C4.66271 8.61412 4.91939 8.61389 5.10432 8.47241L6.58123 7.34228L8.08074 8.47447C8.26655 8.61473 8.52319 8.61325 8.70739 8.47093L10.1644 7.3447L11.6439 8.47299C11.8289 8.61415 12.0856 8.61393 12.2705 8.47244L13.4207 7.59231C13.6615 8.38657 13.8118 9.16815 13.8494 9.86628C13.7063 9.83689 13.5535 9.86831 13.4317 9.96154L11.9564 11.0905L10.4752 9.96099C10.2893 9.81925 10.0314 9.82009 9.84658 9.96302L8.38806 11.0904L6.8901 9.95944C6.7051 9.81976 6.44958 9.82054 6.26545 9.96147L4.79013 11.0904L3.30897 9.96093C3.1779 9.86099 3.01113 9.83225 2.85929 9.87396C2.89648 9.16767 3.04932 8.37547 3.29481 7.57093ZM8.35455 1.77225C9.64726 1.77225 11.0375 2.8568 12.1688 4.7478C12.5105 5.31902 12.8117 5.93741 13.0619 6.56709L11.9564 7.41309L10.4752 6.28357C10.2893 6.14183 10.0314 6.14267 9.84658 6.2856L8.38806 7.41302L6.8901 6.28202C6.7051 6.14234 6.44958 6.14312 6.26545 6.28405L4.79013 7.41302L3.65506 6.54744C4.54165 4.32618 6.30864 1.77225 8.35455 1.77225ZM8.35455 15.7077C5.61845 15.7077 3.34258 13.701 2.92058 11.0821L2.99813 11.0221L4.47768 12.1504C4.66271 12.2915 4.91939 12.2913 5.10432 12.1499L6.58123 11.0197L8.08074 12.1519C8.26655 12.2922 8.52319 12.2907 8.70739 12.1484L10.1644 11.0222L11.6439 12.1504C11.8289 12.2916 12.0856 12.2913 12.2705 12.1499L13.7438 11.0226L13.7922 11.06C13.3795 13.6897 11.0984 15.7077 8.35455 15.7077ZM6.16519 14.0203C5.66494 14.117 5.33958 13.5091 5.69939 13.1493C5.97426 12.867 6.48045 12.9933 6.57035 13.4132C6.62226 13.6813 6.46142 13.9567 6.16519 14.0203ZM8.55229 14.0203C8.26013 14.0767 7.99806 13.8831 7.94519 13.6151C7.89294 13.342 8.05761 13.0713 8.35039 13.008C8.62426 12.9555 8.89513 13.1221 8.95745 13.4132C9.00935 13.6813 8.84852 13.9567 8.55229 14.0203ZM8.35035 3.9758C8.66032 3.91638 8.93668 4.13731 8.96487 4.43128C8.99213 4.71631 8.78381 4.96851 8.50194 4.99547C8.23506 5.02105 7.99594 4.84012 7.94516 4.58289C7.88906 4.2896 8.08294 4.02844 8.35035 3.9758ZM10.2858 3.9758C10.594 3.9167 10.8719 4.13496 10.9004 4.43128C10.9276 4.71631 10.7193 4.96851 10.4374 4.99547C10.1698 5.02112 9.93119 4.83899 9.88064 4.58289C9.82477 4.29089 10.0165 4.02883 10.2858 3.9758ZM6.41487 3.9758C6.72535 3.91628 7.00126 4.13783 7.02939 4.43128C7.05716 4.72164 6.84261 4.96905 6.56645 4.99547C6.3181 5.01928 6.07036 4.86318 6.00968 4.58289C5.95377 4.29064 6.14645 4.02864 6.41487 3.9758ZM10.9394 14.0203C10.6686 14.0726 10.396 13.9097 10.3323 13.6151C10.2801 13.3423 10.4445 13.0713 10.7375 13.008C11.0071 12.9563 11.2813 13.118 11.3445 13.4132C11.3965 13.6813 11.2356 13.9567 10.9394 14.0203Z" fill="#F46818"/>
</g>
<defs>
<clipPath id="clip0_2207_125293">
<rect width="16" height="16" fill="white" transform="translate(0.354492 0.73999)"/>
</clipPath>
</defs>
</svg>
