<svg width="18" height="18" viewBox="0 0 18 18" fill="none" xmlns="http://www.w3.org/2000/svg">
<path d="M11.6064 13.4073C11.6485 13.229 11.5953 13.0417 11.4658 12.9122L10.1511 11.5977L17.2815 4.46807C17.3605 4.38911 17.4125 4.28712 17.4299 4.1768L17.9927 0.612729C18.0502 0.303846 17.7614 -0.0595642 17.3882 0.00825221L13.8237 0.570998C13.7133 0.588401 13.6114 0.640326 13.5324 0.719323L6.4019 7.84897L5.0872 6.53441C4.82606 6.25713 4.32156 6.37617 4.21202 6.74099L3.46161 8.99197C3.39829 9.18185 3.44776 9.39124 3.5893 9.53278L4.71633 10.6597L2.67653 12.6992C2.6676 12.6991 2.65874 12.6985 2.64981 12.6985C1.9417 12.6985 1.27594 12.9743 0.775248 13.4749C-0.258416 14.5084 -0.258416 16.1901 0.775248 17.2236C1.27591 17.7243 1.94166 18.0001 2.64981 18.0001C3.35797 18.0001 4.02369 17.7243 4.52438 17.2237C5.04768 16.7004 5.30559 16.0111 5.29901 15.3238L7.33997 13.2831L8.46701 14.41C8.60887 14.5522 8.82005 14.6006 9.00789 14.5377L11.2591 13.7873C11.433 13.7294 11.5644 13.5856 11.6064 13.4073ZM9.40358 10.8503L8.65021 10.097L16.695 2.05322L16.4125 3.84225L9.40358 10.8503ZM14.1583 1.58831L15.9475 1.30583L7.90276 9.34962L7.14939 8.59636L14.1583 1.58831ZM3.77689 16.4763C3.18356 17.0946 2.116 17.0945 1.52271 16.4763C0.901213 15.8549 0.901213 14.8438 1.52271 14.2223C2.116 13.6041 3.18359 13.6041 3.77689 14.2223C4.39838 14.8438 4.39838 15.8549 3.77689 16.4763ZM5.00177 14.1262C4.87995 13.8917 4.72097 13.6716 4.52438 13.475C4.33 13.2807 4.11056 13.1207 3.8736 12.9971L5.46379 11.4071L6.59248 12.5357L5.00177 14.1262ZM8.98353 13.4316L4.56776 9.01637L4.94443 7.88649L10.1135 13.055L8.98353 13.4316Z" fill="white"/>
</svg>
