<svg width="18" height="16" viewBox="0 0 18 16" fill="none" xmlns="http://www.w3.org/2000/svg">
<path d="M17.0225 6.93409L10.4373 0.698217C9.63064 -0.0650957 8.36783 -0.0650957 7.56177 0.698217L0.992331 6.92003C0.594081 7.26765 0.457394 7.81272 0.643581 8.3094C0.829769 8.80497 1.29102 9.12503 1.81921 9.12503H2.24952V15.3125C2.24952 15.623 2.50152 15.875 2.81202 15.875H15.187C15.4975 15.875 15.7495 15.623 15.7495 15.3125V9.12503H16.1793C16.7075 9.12503 17.1693 8.8044 17.3549 8.30828C17.5411 7.81215 17.4038 7.26653 17.0225 6.93409ZM7.31202 14.75V11.9375C7.31202 11.0072 8.06914 10.25 8.99952 10.25C9.92989 10.25 10.687 11.0072 10.687 11.9375V14.75H7.31202ZM16.1793 8.00003H15.187C14.8765 8.00003 14.6245 8.25203 14.6245 8.56253V14.75H11.812V11.9375C11.812 10.3867 10.5503 9.12503 8.99952 9.12503C7.44871 9.12503 6.18702 10.3867 6.18702 11.9375V14.75H3.37452V8.56253C3.37452 8.25203 3.12252 8.00003 2.81202 8.00003H1.81921C1.70727 8.00003 1.62627 7.85997 1.74889 7.75197L8.33521 1.51497C8.70758 1.16228 9.29146 1.16228 9.66383 1.51497L16.2659 7.76659C16.3581 7.84647 16.3013 8.00003 16.1793 8.00003Z" fill="white"/>
</svg>
