<svg width="23" height="24" viewBox="0 0 23 24" fill="none" xmlns="http://www.w3.org/2000/svg">
<path d="M0.468142 0.719072C3.24328 -0.170645 6.23775 0.482477 8.86254 1.55703C12.4805 3.09741 15.7215 5.43138 18.5558 8.1375C17.7425 9.12827 16.9193 10.1091 16.106 11.0974C15.3321 10.2398 14.5927 9.22684 13.4689 8.82018C12.621 8.63534 12.4165 9.7592 11.9211 10.2225L11.4603 9.95638C8.62594 14.3582 5.83602 18.787 2.98941 23.1788C2.35109 24.1648 0.704738 23.6767 0.482929 22.5948C0.290691 21.9836 0.73925 21.4635 1.03253 20.9804C3.73372 16.7734 6.42259 12.5565 9.11393 8.34451C9.0252 8.25332 8.84776 8.07095 8.75902 7.97976C9.20513 7.31186 9.93463 6.55523 9.68321 5.69509C7.19894 3.15656 3.82491 1.71231 0.468142 0.719072Z" fill="white"/>
<path d="M14.5537 14.7745C15.0984 14.4394 15.643 14.1066 16.1877 13.7764C17.0701 14.3876 17.9598 14.989 18.8347 15.6125C18.1076 16.692 17.1317 17.5644 16.2764 18.5355C15.8057 17.9587 15.2684 17.4338 14.8421 16.8251C14.6622 16.1547 14.6449 15.4572 14.5537 14.7745Z" fill="white"/>
<path d="M17.3584 18.9373C19.0589 18.5749 20.7645 18.2447 22.465 17.8947C22.3369 19.2995 22.3566 20.7216 22.1742 22.119C21.7207 22.7376 21.1563 23.2675 20.6659 23.8566C19.5914 23.6988 18.5192 23.5312 17.4496 23.3636C17.4076 21.8873 17.3707 20.4135 17.3584 18.9373Z" fill="white"/>
<path d="M10.4017 19.329C11.6217 19.0876 12.8391 18.8411 14.0591 18.5995C14.4929 20.0364 14.9218 21.4733 15.353 22.9126C14.6556 23.159 13.9556 23.4055 13.2581 23.652C11.984 23.1738 10.6999 22.7154 9.43066 22.2201C9.7707 21.2613 10.0862 20.2952 10.4017 19.329Z" fill="white"/>
</svg>
