<svg width="24" height="25" viewBox="0 0 24 25" fill="none" xmlns="http://www.w3.org/2000/svg">
<g clip-path="url(#clip0_2362_100238)">
<path d="M1.44123 0.781776C8.27336 0.781776 15.1078 0.781776 21.94 0.781776C21.94 1.17516 21.94 1.57092 21.94 1.96667C15.1078 1.96667 8.27336 1.96667 1.44123 1.96667C1.43886 1.57092 1.43886 1.17516 1.44123 0.781776Z" fill="white"/>
<path d="M0.25554 3.15142C7.87919 3.15142 15.5005 3.15142 23.1241 3.15142C23.1122 4.49747 23.1455 5.84352 23.1146 7.18957C23.0791 9.21338 21.361 11.0192 19.349 11.1851C17.7517 11.3818 16.1688 10.5286 15.3037 9.19915C14.5217 10.3793 13.1946 11.2111 11.7586 11.2064C10.275 11.2585 8.87213 10.4196 8.07588 9.19205C7.12085 10.7277 5.2179 11.5097 3.45477 11.1163C3.45714 14.3867 3.45477 17.6569 3.4524 20.9273C3.44054 21.6406 3.60169 22.6075 4.42875 22.7994C5.54019 23.0791 6.70376 22.88 7.83889 22.9369C7.84837 20.368 7.81757 17.7968 7.85075 15.2256C7.87444 14.0454 8.929 13.0003 10.1139 12.9956C11.2917 12.9695 12.4695 12.979 13.6473 12.9908C14.8512 12.9553 15.9697 13.9909 16.0005 15.2018C16.0407 17.3063 16.0005 19.413 16.0147 21.5173C15.619 21.5173 15.2232 21.5173 14.8298 21.5173C14.8203 19.6547 14.8441 17.7897 14.8227 15.927C14.8441 15.1781 14.4649 14.3345 13.6355 14.2444C12.5453 14.1118 11.4315 14.1425 10.3391 14.2208C9.54513 14.2681 9.03802 14.9838 9.04275 15.7445C9.0001 18.1404 9.03091 20.541 9.03565 22.9393C12.0737 22.9369 15.1118 22.9369 18.1523 22.9417C18.7045 22.9417 19.2922 22.8587 19.7401 22.5056C20.1382 21.9889 20.1713 21.3088 20.1666 20.6856C20.1524 18.1618 20.169 15.6379 20.1571 13.1117C20.5529 13.1069 20.9486 13.1022 21.3468 13.1022C21.3373 16.0171 21.3657 18.9367 21.3373 21.8515C21.3325 23.1336 20.1263 24.2095 18.8561 24.1241C14.1212 24.1241 9.38636 24.1312 4.65152 24.1194C3.4287 24.1597 2.30305 23.1075 2.28409 21.8823C2.24617 18.1261 2.28883 14.3677 2.26276 10.6116C1.17976 9.88879 0.364549 8.71571 0.279236 7.39099C0.217621 5.97859 0.272128 4.56383 0.25554 3.15142ZM1.47124 4.3387C1.45228 5.70845 1.24374 7.19668 1.96417 8.44082C2.28409 9.14702 2.99266 9.54984 3.69411 9.7963C4.67284 10.2134 5.75821 9.68969 6.52129 9.06407C7.70145 7.78912 7.50001 5.94305 7.45973 4.34344C5.46199 4.32921 3.46661 4.3387 1.47124 4.3387ZM8.69439 4.34344C8.68255 5.73688 8.46452 7.25828 9.22997 8.50954C9.57125 9.211 10.3058 9.58547 11.0097 9.82713C11.9458 10.1873 12.9505 9.68018 13.6923 9.11858C14.9317 7.85548 14.735 5.95727 14.6805 4.3387C12.6852 4.3387 10.6897 4.32921 8.69439 4.34344ZM15.927 4.3387C15.9104 5.70845 15.6972 7.19668 16.4199 8.44082C16.7423 9.14702 17.4531 9.55464 18.157 9.7987C19.1357 10.2134 20.2211 9.68498 20.9795 9.06171C22.1548 7.78438 21.9558 5.94068 21.9132 4.34344C19.9177 4.32921 17.9224 4.3387 15.927 4.3387Z" fill="white"/>
</g>
<defs>
<clipPath id="clip0_2362_100238">
<rect width="24" height="24.9231" fill="white" transform="translate(0.000488281)"/>
</clipPath>
</defs>
</svg>
