<svg width="25" height="22" viewBox="0 0 25 22" fill="none" xmlns="http://www.w3.org/2000/svg">
<g clip-path="url(#clip0_2204_1754)">
<path d="M18.1087 0.614258C22.4101 0.614258 24.95 2.90712 24.95 6.83097H19.6718V6.87024C17.2217 6.87024 15.2357 8.66294 15.2357 10.8749C15.2357 13.087 17.2217 14.8796 19.6718 14.8796H24.95V15.2401C24.95 19.113 22.4101 21.4059 18.1087 21.4059H6.84129C2.53991 21.4059 0 19.113 0 15.2401V6.78014C0 2.90712 2.53991 0.614258 6.84129 0.614258H18.1087ZM24.0181 8.55206C24.5333 8.55206 24.95 8.92862 24.95 9.39296V12.3165C24.9442 12.5416 24.8433 12.7557 24.6692 12.9128C24.495 13.07 24.2613 13.1578 24.0181 13.1575H19.7729C18.5329 13.1724 17.4475 12.4066 17.1668 11.315C17.0976 10.9798 17.1101 10.6345 17.2035 10.3043C17.297 9.97413 17.4691 9.66749 17.707 9.40683C17.9492 9.14198 18.2502 8.92855 18.5894 8.78106C18.9287 8.63356 19.2983 8.55546 19.6731 8.55206H24.0181ZM20.2706 9.90352H19.8602C19.6095 9.90051 19.3675 9.98888 19.1866 10.1495C19.0984 10.2278 19.0282 10.3218 18.9802 10.4258C18.9322 10.5298 18.9073 10.6417 18.9071 10.7548C18.9071 11.2318 19.3313 11.6212 19.8602 11.6257H20.2706C20.5202 11.6285 20.7608 11.5394 20.9395 11.3781C21.1182 11.2168 21.2204 10.9963 21.2237 10.7652C21.2223 10.6507 21.1965 10.5375 21.1477 10.4323C21.0991 10.327 21.0285 10.2316 20.9399 10.1516C20.8514 10.0716 20.7468 10.0085 20.6319 9.9659C20.5171 9.92334 20.3943 9.90213 20.2706 9.90352ZM12.9515 5.10987H5.91065C5.66276 5.10677 5.42354 5.19428 5.24487 5.35343C5.06621 5.51259 4.96253 5.73055 4.95632 5.96002C4.95632 6.43708 5.38171 6.82634 5.91065 6.83097H12.9515C13.0754 6.83249 13.1982 6.8114 13.3132 6.76891C13.4282 6.72642 13.533 6.66335 13.6217 6.58332C13.7103 6.50328 13.781 6.40786 13.8298 6.30249C13.8785 6.19712 13.9044 6.08389 13.9059 5.96927C13.9042 5.85474 13.8782 5.74163 13.8295 5.6364C13.7806 5.53117 13.7098 5.43588 13.6212 5.35596C13.5326 5.27605 13.4279 5.21308 13.3129 5.17067C13.198 5.12824 13.0753 5.10719 12.9515 5.10872V5.10987Z" fill="white"/>
</g>
<defs>
<clipPath id="clip0_2204_1754">
<rect width="24.95" height="20.7917" fill="white" transform="translate(0 0.614258)"/>
</clipPath>
</defs>
</svg>
