<svg xmlns="http://www.w3.org/2000/svg" xmlns:xlink="http://www.w3.org/1999/xlink" version="1.1" width="56" height="56" viewBox="0 0 800 800">
                                                    <g enable-background="new">
                                                    <g id="Layer-1" data-name="Layer"> 
                                                    <clipPath id="cp0">
                                                    <path transform="matrix(1,0,0,-1,0,800)" d="M 0 800 L 800 800 L 800 0 L 0 0 Z "></path>
                                                    </clipPath>
                                                    <g clip-path="url(#cp0)">
                                                    <path transform="matrix(1,0,0,-1,266.6621,74.09418)" d="M 0 0 C -9.943 1.533 -10.362 1.712 -5.684 2.427 C 3.284 3.798 24.458 1.93 39.049 -1.518 C 73.113 -9.566 104.109 -30.182 137.195 -66.795 L 145.985 -76.522 L 158.56 -74.513 C 211.534 -66.052 265.426 -72.777 310.5 -93.473 C 322.899 -99.167 342.453 -110.5 344.896 -113.413 C 345.673 -114.341 347.101 -120.315 348.068 -126.691 C 351.415 -148.749 349.739 -165.657 342.955 -178.285 C 339.259 -185.157 339.053 -187.335 341.538 -193.216 C 343.521 -197.909 349.047 -201.382 354.52 -201.375 C 365.719 -201.36 377.774 -183.363 383.363 -158.321 L 385.584 -148.375 L 389.978 -153.323 C 414.089 -180.475 433.029 -217.504 436.281 -243.861 L 437.127 -250.733 L 433.077 -244.486 C 426.103 -233.735 419.091 -226.417 410.118 -220.515 C 393.938 -209.876 376.833 -206.255 331.534 -203.882 C 290.618 -201.74 267.462 -198.267 244.501 -190.825 C 205.435 -178.165 185.74 -161.305 139.335 -100.792 C 118.723 -73.914 105.983 -59.043 93.311 -47.067 C 64.515 -19.855 36.22 -5.584 0 0 " fill="#fdcc39"></path>
                                                    <path transform="matrix(1,0,0,-1,620.7852,134.10639)" d="M 0 0 C 1.03 18.011 3.484 29.89 8.428 40.739 C 10.385 45.033 12.214 48.548 12.499 48.548 C 12.779 48.548 11.929 45.379 10.606 41.505 C 7.017 30.977 6.424 16.575 8.898 -.18 C 12.039 -21.439 13.826 -24.507 36.437 -47.472 C 47.038 -58.243 59.374 -71.828 63.842 -77.661 L 71.975 -88.266 L 63.842 -80.687 C 53.901 -71.418 31.038 -53.343 25.988 -50.759 C 22.599 -49.026 22.097 -49.056 20.008 -51.123 C 18.083 -53.026 17.676 -55.888 17.412 -69.415 C 16.994 -90.497 14.102 -104.028 7.127 -117.558 C 3.352 -124.876 2.754 -123.314 6.17 -115.054 C 8.719 -108.887 8.978 -106.176 8.962 -85.768 C 8.92 -44.762 4.023 -34.903 -24.699 -18.016 C -31.975 -13.738 -43.967 -7.568 -51.344 -4.305 C -58.721 -1.041 -64.58 1.802 -64.367 2.014 C -63.554 2.818 -35.544 -5.308 -24.266 -9.619 C -7.493 -16.03 -4.728 -16.861 -2.691 -16.088 C -1.322 -15.569 -.661 -11.617 0 0 " fill="#e49945"></path>
                                                    <path transform="matrix(1,0,0,-1,285.9771,204.25537)" d="M 0 0 C -20.186 27.622 -32.676 69.971 -29.972 101.63 L -29.136 111.427 L -24.541 110.593 C -15.912 109.029 -1.035 103.525 5.932 99.319 C 25.05 87.78 33.327 72.586 41.747 33.573 C 44.213 22.145 47.449 9.213 48.938 4.835 C 51.335 -2.212 60.393 -18.672 67.758 -29.362 C 73.062 -37.061 69.539 -40.709 57.813 -39.657 C 39.905 -38.051 15.648 -21.412 0 0 " fill="#e49945"></path>
                                                    <path transform="matrix(1,0,0,-1,596.2979,409.8281)" d="M 0 0 C -94.334 37.75 -127.559 70.519 -127.559 125.808 C -127.559 133.944 -127.276 140.602 -126.934 140.602 C -126.59 140.602 -122.939 137.917 -118.823 134.634 C -99.693 119.384 -78.272 112.871 -18.972 104.272 C 15.926 99.212 35.564 95.125 53.68 89.154 C 111.256 70.175 146.879 31.66 155.376 -20.801 C 157.846 -36.044 156.396 -64.63 152.394 -79.696 C 149.237 -91.596 139.593 -113.045 137.033 -113.87 C 136.325 -114.098 135.632 -111.396 135.447 -107.72 C 134.479 -88.021 124.465 -68.844 107.645 -54.478 C 88.52 -38.145 62.827 -25.141 0 0 " fill="#e49945"></path>
                                                    <path transform="matrix(1,0,0,-1,530.0732,425.5117)" d="M 0 0 C -1.183 6.991 -3.232 15.918 -4.556 19.839 L -6.963 26.967 L -2.492 21.979 C 3.695 15.077 8.585 6.245 12.729 -5.519 C 15.891 -14.497 16.247 -17.167 16.223 -31.757 C 16.198 -46.08 15.804 -49.083 12.884 -57.165 C 8.279 -69.907 2.563 -78.943 -7.026 -88.643 C -24.259 -106.075 -46.413 -115.726 -78.384 -119.728 C -83.941 -120.421 -100.139 -121.595 -114.379 -122.329 C -150.266 -124.186 -173.885 -128.019 -195.108 -135.427 C -198.159 -136.489 -200.883 -137.14 -201.16 -136.865 C -202.019 -136.014 -187.569 -127.453 -175.634 -121.737 C -158.805 -113.679 -142.052 -109.285 -104.518 -103.072 C -85.977 -100 -66.828 -96.277 -61.966 -94.796 C -16.049 -80.804 7.554 -44.695 0 0 " fill="#e49945"></path>
                                                    <path transform="matrix(1,0,0,-1,573.3174,501.8438)" d="M 0 0 C -12.533 26.779 -15.412 52.636 -8.545 76.748 C -7.81 79.325 -6.629 81.434 -5.918 81.434 C -5.208 81.434 -2.25 79.845 .653 77.903 C 6.431 74.038 18.016 67.53 48.874 50.807 C 87.384 29.937 109.343 13.779 124.275 -4.683 C 137.352 -20.85 145.441 -39.267 149.338 -61.723 C 151.543 -74.439 150.248 -105.044 146.964 -117.851 C 136.611 -158.237 112.547 -189.957 78.226 -208.47 C 73.197 -211.182 68.681 -213.408 68.194 -213.419 C 67.703 -213.429 69.538 -208.797 72.267 -203.129 C 83.809 -179.139 85.126 -155.805 76.396 -129.832 C 71.05 -113.927 60.152 -94.521 38.15 -61.723 C 12.563 -23.594 6.293 -13.446 0 0 " fill="#e49945"></path>
                                                    <path transform="matrix(1,0,0,-1,218.9834,646.333)" d="M 0 0 C 35.007 29.378 78.565 50.248 118.241 56.656 C 135.341 59.417 163.826 58.322 179.661 54.293 C 205.041 47.837 227.746 33.375 239.554 16.148 C 251.093 -.687 256.044 -15.36 261.198 -48.006 C 263.232 -60.887 265.443 -73.815 266.112 -76.744 C 269.983 -93.665 277.517 -107.185 286.852 -113.979 C 301.677 -124.767 327.207 -125.433 352.321 -115.698 C 356.583 -114.043 360.283 -112.901 360.542 -113.16 C 361.457 -114.059 348.809 -122.472 339.888 -126.902 C 327.883 -132.861 318.337 -135.167 305.652 -135.167 C 282.651 -135.167 263.555 -123.54 247.62 -99.824 C 244.484 -95.155 237.437 -81.181 231.958 -68.76 C 215.134 -30.621 206.826 -19.004 187.292 -6.287 C 170.292 4.774 148.367 6.758 131.875 -1.279 C 110.209 -11.839 104.164 -39.355 119.681 -56.794 C 125.849 -63.727 137.349 -69.701 146.753 -70.864 C 164.347 -73.043 179.466 -59.739 179.466 -42.084 C 179.466 -30.621 175.033 -24.08 163.873 -19.072 C 148.631 -12.235 132.248 -20.23 132.326 -34.459 C 132.36 -40.529 135.019 -44.337 141.139 -47.092 C 145.066 -48.857 145.157 -48.995 141.955 -48.334 C 127.971 -45.452 124.694 -28.696 135.938 -17.571 C 149.438 -4.22 177.354 -10.11 186.94 -28.342 C 190.968 -35.998 191.435 -51.248 187.924 -60.453 C 180.066 -81.064 157.153 -91.898 133.909 -86.003 C 118.084 -81.984 111.64 -77.638 92.56 -58.105 C 59.406 -24.159 46.535 -17.581 -1.263 -10.168 L -10.422 -8.746 Z " fill="#36d2cd"></path>
                                                    <path transform="matrix(1,0,0,-1,114.9858,557.792)" d="M 0 0 C 5.039 8.872 2.362 20.272 -6.067 25.846 C -14.031 31.106 -26.404 28.627 -26.404 21.769 C -26.404 19.675 -25.239 18.152 -22.615 16.809 C -18.196 14.551 -17.875 12.008 -21.352 6.815 C -24.873 1.554 -24.589 -3.072 -20.55 -6.213 C -14.041 -11.279 -4.826 -8.492 0 0 M -51.567 518.988 C 59.153 385.425 135.412 330.319 143.886 318.677 C 150.883 309.064 148.25 300.421 136.263 293.648 C 129.597 289.882 115.892 286.066 109.03 286.066 C 101.27 286.066 98.605 289.042 98.605 289.042 C 94.105 293.284 91.571 292.542 68.462 333.311 C 36.38 382.789 9.531 423.833 8.799 424.521 C 7.105 426.11 7.134 426.057 65.191 322.811 C 74.571 301.292 67.057 293.393 67.057 290.328 C 67.057 284.094 65.345 280.816 57.607 272.237 C 44.707 257.934 38.94 241.862 34.777 208.601 C 30.111 171.314 16.988 144.977 -19.378 99.898 C -40.666 73.512 -44.149 68.675 -49.52 58.04 C -56.286 44.646 -58.146 37.146 -58.9 20.235 C -59.697 2.353 -58.145 -9.201 -52.649 -26.296 C -47.837 -41.265 -42.814 -51.147 -29.973 -70.912 C -18.892 -87.97 -12.511 -100.649 -12.511 -105.609 C -12.511 -109.554 -11.753 -109.56 5.418 -105.705 C 46.512 -96.483 79.88 -80.261 98.646 -60.38 C 110.261 -48.075 112.988 -41.28 113.076 -24.424 C 113.134 -13.394 112.744 -11.083 109.744 -4.738 C 104.862 5.589 95.973 14.176 76.381 27.484 C 50.711 44.927 39.747 58.968 36.719 78.278 C 34.234 94.122 37.117 105.302 51.317 134.884 C 66.016 165.503 69.659 178.552 72.123 209.416 C 73.714 229.355 75.918 237.219 81.682 243.531 C 87.694 250.113 93.106 252.343 107.983 254.363 C 132.239 257.656 147.685 263.894 160.38 275.521 C 171.393 285.608 176.001 295.327 176.708 309.958 L 177.246 321.048 L 171.091 328.18 C 148.803 354.009 -66.493 539.292 -67.865 539.292 C -68.158 539.292 -60.824 530.155 -51.567 518.988 " fill="#36d2cd"></path>
                                                    <path transform="matrix(1,0,0,-1,337.8525,332.8062)" d="M 0 0 C 3.999 5.647 2.249 11.751 -4.552 15.879 C -17.504 23.74 -37.09 17.235 -37.09 5.074 C -37.09 -.979 -26.876 -7.584 -17.514 -7.584 C -11.282 -7.584 -2.754 -3.891 0 0 M -30.314 23.56 C -41.701 20.083 -52.77 8.089 -56.196 -4.488 C -58.287 -12.161 -57.101 -25.62 -53.97 -29.777 C -48.912 -36.49 -44.02 -38.259 -30.775 -38.167 C -4.844 -37.987 17.7 -26.933 20.321 -13.114 C 22.469 -1.787 12.568 13.912 -1.07 20.803 C -8.107 24.358 -23.073 25.769 -30.314 23.56 " fill="#36d2cd"></path>
                                                    </g>
                                                    </g>
                                                    </g>
                                                    </svg>